<svg width="20" height="20" viewBox="0 0 20 20" fill="none" xmlns="http://www.w3.org/2000/svg">
<path d="M18.3333 9.63892C18.3333 14.0416 14.6018 17.6112 9.99996 17.6112C9.45888 17.6119 8.91929 17.5618 8.38779 17.4621C8.00523 17.3902 7.81394 17.3543 7.6804 17.3747C7.54685 17.3951 7.35761 17.4957 6.97912 17.697C5.90841 18.2664 4.65992 18.4675 3.45922 18.2442C3.91558 17.6828 4.22725 17.0093 4.36478 16.2873C4.44811 15.8457 4.24163 15.4167 3.93237 15.1026C2.52773 13.6763 1.66663 11.7543 1.66663 9.63892C1.66663 5.23631 5.39811 1.66667 9.99996 1.66667C14.6018 1.66667 18.3333 5.23631 18.3333 9.63892Z" stroke="#121117" stroke-width="1.5" stroke-linejoin="round"/>
<path d="M9.99621 10H10.0037M13.3258 10H13.3333M6.66663 10H6.6741" stroke="#121117" stroke-width="1.5" stroke-linecap="round" stroke-linejoin="round"/>
</svg>
