<svg width="24" height="18" viewBox="0 0 24 18" fill="none" xmlns="http://www.w3.org/2000/svg">
<g clip-path="url(#clip0_1_70)">
<mask id="mask0_1_70" style="mask-type:luminance" maskUnits="userSpaceOnUse" x="0" y="0" width="25" height="18">
<path d="M0 0H24.0001V18H0V0Z" fill="white"/>
</mask>
<g mask="url(#mask0_1_70)">
<path fill-rule="evenodd" clip-rule="evenodd" d="M0 0H34.2004V1.38463H0V0ZM0 2.76926H34.2004V4.15389H0V2.76926ZM0 5.53852H34.2004V6.92314H0V5.53852ZM0 8.30777H34.2004V9.6924H0V8.30777ZM0 11.077H34.2004V12.4617H0V11.077ZM0 13.8463H34.2004V15.2309H0V13.8463ZM0 16.6155H34.2004V18.0002H0V16.6155Z" fill="#BD3D44"/>
<path fill-rule="evenodd" clip-rule="evenodd" d="M0 1.38463H34.2004V2.76926H0V1.38463ZM0 4.15389H34.2004V5.53852H0V4.15389ZM0 6.92314H34.2004V8.30777H0V6.92314ZM0 9.6924H34.2004V11.077H0V9.6924ZM0 12.4617H34.2004V13.8463H0V12.4617ZM0 15.2309H34.2004V16.6155H0V15.2309Z" fill="white"/>
<path fill-rule="evenodd" clip-rule="evenodd" d="M0 0H13.68V9.69223H0V0Z" fill="#192F5D"/>
<path fill-rule="evenodd" clip-rule="evenodd" d="M1.14 0.414845L1.26445 0.797907H1.66727L1.34137 1.03468L1.46583 1.41789L1.13993 1.18111L0.814135 1.41785L0.938588 1.03475L0.612689 0.798012H1.01551L1.14 0.414845ZM3.41999 0.414845L3.54444 0.797907H3.94733L3.62143 1.03468L3.74589 1.41789L3.41999 1.18111L3.09416 1.41785L3.21861 1.03475L2.89271 0.798012H3.29553L3.41999 0.414845ZM5.70008 0.414845L5.82453 0.797907H6.22735L5.90146 1.03468L6.02591 1.41789L5.70008 1.18111L5.37418 1.41785L5.49864 1.03475L5.17281 0.798012H5.57563L5.70008 0.414845ZM7.98003 0.414845L8.10449 0.797907H8.50727L8.18137 1.03468L8.30583 1.41789L7.98003 1.18111L7.65414 1.41785L7.77859 1.03475L7.45269 0.798012H7.85558L7.98003 0.414845ZM10.2601 0.414845L10.3845 0.797907H10.7874L10.4615 1.03468L10.5861 1.41789L10.2602 1.18111L9.93433 1.41785L10.0588 1.03475L9.73289 0.798012H10.1357L10.2601 0.414845ZM12.5402 0.414845L12.6646 0.797907H13.0674L12.7415 1.03468L12.866 1.41789L12.5402 1.18111L12.2143 1.41785L12.3388 1.03475L12.0129 0.798012H12.4157L12.5402 0.414845ZM2.28005 1.3841L2.4045 1.76716H2.80732L2.48142 2.00391L2.60594 2.387L2.28005 2.15026L1.95415 2.387L2.0786 2.00391L1.75281 1.76716H2.15563L2.28005 1.3841ZM4.56 1.3841L4.68445 1.76716H5.08724L4.76134 2.00391L4.88579 2.387L4.56 2.15026L4.2341 2.387L4.35855 2.00391L4.03265 1.76716H4.43555L4.56 1.3841ZM6.84006 1.3841L6.96451 1.76716H7.36733L7.04143 2.00391L7.16589 2.387L6.83999 2.15026L6.51419 2.387L6.63865 2.00391L6.31275 1.76716H6.71557L6.84006 1.3841ZM9.12012 1.3841L9.24457 1.76716H9.64739L9.32149 2.00391L9.44594 2.387L9.12012 2.15026L8.79422 2.387L8.91878 2.00391L8.59288 1.76716H8.9957L9.12012 1.3841ZM11.4001 1.3841L11.5245 1.76716H11.9272L11.6013 2.00391L11.7258 2.387L11.4001 2.15026L11.0742 2.387L11.1987 2.00391L10.8728 1.76716H11.2756L11.4001 1.3841ZM1.13989 2.35336L1.26435 2.73639H1.66717L1.34127 2.97316L1.46572 3.35623L1.13982 3.11949L0.814029 3.35623L0.938482 2.97316L0.612584 2.73639H1.0154L1.13989 2.35336ZM3.41988 2.35336L3.54433 2.73639H3.94722L3.62133 2.97316L3.74578 3.35623L3.41988 3.11949L3.09398 3.35623L3.21844 2.97316L2.89254 2.73639H3.29543L3.41988 2.35336ZM5.69994 2.35336L5.82439 2.73639H6.22721L5.90132 2.97316L6.02577 3.35623L5.69998 3.11949L5.37408 3.35623L5.49853 2.97316L5.1727 2.73639H5.57552L5.69994 2.35336ZM7.97989 2.35336L8.10435 2.73639H8.50713L8.18123 2.97316L8.30569 3.35623L7.97989 3.11949L7.654 3.35623L7.77845 2.97316L7.45255 2.73639H7.85544L7.97989 2.35336ZM10.26 2.35336L10.3844 2.73639H10.7872L10.4613 2.97316L10.5859 3.35623L10.26 3.11949L9.93412 3.35623L10.0586 2.97316L9.73268 2.73639H10.1355L10.26 2.35336ZM12.54 2.35336L12.6645 2.73639H13.0673L12.7414 2.97316L12.8658 3.35623L12.54 3.11949L12.2141 3.35623L12.3386 2.97316L12.0127 2.73639H12.4155L12.54 2.35336ZM2.28005 3.32251L2.4045 3.70561H2.80732L2.48142 3.94235L2.60594 4.32541L2.28005 4.08867L1.95415 4.32541L2.0786 3.94232L1.75277 3.70554H2.15559L2.28005 3.32251ZM4.56 3.32251L4.68445 3.70561H5.08724L4.76134 3.94235L4.88579 4.32541L4.56 4.08867L4.2341 4.32541L4.35855 3.94232L4.03265 3.70554H4.43555L4.56 3.32251ZM6.84006 3.32251L6.96451 3.70561H7.36733L7.04143 3.94235L7.16589 4.32541L6.83999 4.08867L6.51419 4.32541L6.63865 3.94232L6.31275 3.70554H6.71557L6.84006 3.32251ZM9.12012 3.32251L9.24457 3.70561H9.64739L9.32149 3.94235L9.44594 4.32541L9.12012 4.08867L8.79422 4.32541L8.91874 3.94232L8.59284 3.70554H8.99556L9.12012 3.32251ZM11.4001 3.32251L11.5245 3.70561H11.9272L11.6013 3.94235L11.7258 4.32541L11.4 4.08867L11.0741 4.32541L11.1985 3.94232L10.8726 3.70554H11.2754L11.4001 3.32251ZM1.13989 4.29177L1.26435 4.67483H1.66717L1.34127 4.91161L1.46572 5.29464L1.13982 5.0579L0.814029 5.2946L0.938482 4.91154L0.612584 4.67473H1.0154L1.13989 4.29177ZM3.41988 4.29177L3.54433 4.67483H3.94722L3.62133 4.91161L3.74578 5.29464L3.41988 5.0579L3.09398 5.2946L3.21844 4.91154L2.89254 4.67473H3.29543L3.41988 4.29177ZM5.69994 4.29177L5.82439 4.67483H6.22721L5.90132 4.91161L6.02577 5.29464L5.69998 5.0579L5.37408 5.2946L5.49853 4.91154L5.1727 4.67473H5.57552L5.69994 4.29177ZM7.97989 4.29177L8.10435 4.67483H8.50713L8.18123 4.91161L8.30569 5.29464L7.97989 5.0579L7.654 5.2946L7.77845 4.91154L7.45255 4.67473H7.85544L7.97989 4.29177ZM10.26 4.29177L10.3844 4.67483H10.7872L10.4613 4.91161L10.5859 5.29464L10.26 5.0579L9.93412 5.2946L10.0586 4.91154L9.73268 4.67473H10.1355L10.26 4.29177ZM12.54 4.29177L12.6645 4.67483H13.0673L12.7414 4.91161L12.8658 5.29464L12.54 5.0579L12.2141 5.2946L12.3386 4.91154L12.0127 4.67473H12.4155L12.54 4.29177ZM2.2799 5.26103L2.40436 5.64409H2.80721L2.48131 5.88083L2.60584 6.26393L2.27994 6.02719L1.95404 6.26397L2.07849 5.88087L1.75267 5.64413H2.15549L2.2799 5.26103ZM4.55986 5.26103L4.68431 5.64409H5.0871L4.7612 5.88083L4.88565 6.26393L4.55989 6.02719L4.23399 6.26397L4.35845 5.88087L4.03255 5.64413H4.43544L4.55986 5.26103ZM6.83992 5.26103L6.96437 5.64409H7.36726L7.04136 5.88083L7.16582 6.26393L6.83992 6.02719L6.51402 6.26397L6.63847 5.88087L6.31257 5.64413H6.71546L6.83992 5.26103ZM9.11998 5.26103L9.24443 5.64409H9.64725L9.32135 5.88083L9.4458 6.26393L9.11998 6.02719L8.79408 6.26397L8.9186 5.88087L8.5927 5.64413H8.99549L9.11998 5.26103ZM11.3999 5.26103L11.5244 5.64409H11.9271L11.6012 5.88083L11.7257 6.26393L11.3999 6.02719L11.074 6.26397L11.1984 5.88087L10.8726 5.64413H11.2754L11.3999 5.26103ZM1.13993 6.23029L1.26438 6.61335H1.66717L1.34127 6.85013L1.46572 7.23319L1.13982 6.99645L0.814029 7.23319L0.938482 6.85013L0.612584 6.61335H1.0154L1.13993 6.23029ZM3.41988 6.23029L3.54433 6.61335H3.94722L3.62133 6.85013L3.74578 7.23319L3.41988 6.99645L3.09398 7.23319L3.21844 6.85013L2.89254 6.61335H3.29543L3.41988 6.23029ZM5.69994 6.23029L5.82439 6.61335H6.22721L5.90132 6.85013L6.02577 7.23319L5.69994 6.99645L5.37404 7.23319L5.49849 6.85013L5.17267 6.61335H5.57549L5.69994 6.23029ZM7.97989 6.23029L8.10435 6.61335H8.50713L8.18123 6.85013L8.30569 7.23319L7.97989 6.99645L7.654 7.23319L7.77845 6.85013L7.45255 6.61335H7.85544L7.97989 6.23029ZM10.26 6.23029L10.3844 6.61335H10.7872L10.4613 6.85013L10.5859 7.23319L10.26 6.99645L9.93416 7.23319L10.0586 6.85013L9.73271 6.61335H10.1355L10.26 6.23029ZM12.54 6.23029L12.6645 6.61335H13.0673L12.7414 6.85013L12.8658 7.23319L12.54 6.99645L12.2141 7.23319L12.3386 6.85013L12.0127 6.61335H12.4155L12.54 6.23029ZM2.2799 7.19954L2.40436 7.58261H2.80718L2.48128 7.81935L2.6058 8.20245L2.2799 7.9657L1.95401 8.20245L2.07846 7.81935L1.75263 7.58261H2.15545L2.2799 7.19954ZM4.55986 7.19954L4.68431 7.58261H5.0871L4.7612 7.81935L4.88565 8.20245L4.55986 7.9657L4.23396 8.20245L4.35841 7.81935L4.03251 7.58261H4.4354L4.55986 7.19954ZM6.83992 7.19954L6.96437 7.58261H7.36726L7.04136 7.81935L7.16582 8.20245L6.83992 7.9657L6.51409 8.20245L6.63854 7.81935L6.31264 7.58261H6.71546L6.83992 7.19954ZM9.12001 7.19954L9.24446 7.58261H9.64728L9.32139 7.81935L9.44584 8.20245L9.12001 7.9657L8.79411 8.20245L8.91864 7.81935L8.59274 7.58261H8.99549L9.12001 7.19954ZM11.4 7.19954L11.5244 7.58261H11.9271L11.6012 7.81935L11.7257 8.20245L11.3999 7.9657L11.074 8.20245L11.1984 7.81935L10.8726 7.58261H11.2754L11.4 7.19954ZM1.13986 8.1688L1.26431 8.55183H1.66713L1.34123 8.78861L1.46569 9.17167L1.13979 8.93493L0.813994 9.17153L0.938447 8.7885L0.612549 8.55172H1.01537L1.13986 8.1688ZM3.41985 8.1688L3.5443 8.55183H3.94719L3.62129 8.78861L3.74574 9.17167L3.41985 8.93493L3.09402 9.17153L3.21847 8.7885L2.89257 8.55172H3.29546L3.41985 8.1688ZM5.69994 8.1688L5.82439 8.55183H6.22721L5.90132 8.78861L6.02577 9.17167L5.69994 8.93493L5.37404 9.17153L5.49849 8.7885L5.17267 8.55172H5.57549L5.69994 8.1688ZM7.97989 8.1688L8.10435 8.55183H8.50713L8.18123 8.78861L8.30569 9.17167L7.97989 8.93493L7.654 9.17153L7.77845 8.7885L7.45255 8.55172H7.85544L7.97989 8.1688ZM10.26 8.1688L10.3844 8.55183H10.7873L10.4614 8.78861L10.5859 9.17167L10.26 8.93493L9.93419 9.17153L10.0586 8.7885L9.73275 8.55172H10.1356L10.26 8.1688ZM12.54 8.1688L12.6645 8.55183H13.0673L12.7414 8.78861L12.8659 9.17167L12.54 8.93493L12.2141 9.17153L12.3387 8.7885L12.0128 8.55172H12.4156L12.54 8.1688Z" fill="white"/>
</g>
</g>
<defs>
<clipPath id="clip0_1_70">
<rect width="24" height="18" fill="white"/>
</clipPath>
</defs>
</svg>
