<svg width="22" height="25" viewBox="0 0 22 25" fill="none" xmlns="http://www.w3.org/2000/svg">
<path d="M2.10831 17.308C1.9311 18.4697 2.72338 19.276 3.69342 19.6778C7.41238 21.2185 12.5877 21.2185 16.3066 19.6778C17.2767 19.276 18.069 18.4697 17.8918 17.308C17.7829 16.5941 17.2444 15.9996 16.8454 15.4191C16.3228 14.6494 16.2709 13.8098 16.2708 12.9167C16.2708 9.46488 13.4633 6.66667 10 6.66667C6.53682 6.66667 3.72932 9.46488 3.72932 12.9167C3.72923 13.8098 3.67731 14.6494 3.15472 15.4191C2.75574 15.9996 2.21722 16.5941 2.10831 17.308Z" stroke="#121117" stroke-width="1.5" stroke-linecap="round" stroke-linejoin="round"/>
<path d="M6.66663 20.8333C7.0487 22.271 8.39621 23.3333 9.99996 23.3333C11.6037 23.3333 12.9512 22.271 13.3333 20.8333" stroke="#121117" stroke-width="1.5" stroke-linecap="round" stroke-linejoin="round"/>
<circle cx="16" cy="6" r="5" fill="#EE801D" stroke="white" stroke-width="2"/>
</svg>
